
    <svg width="268" height="562" viewBox="0 0 268 562" fill="none" xmlns="http://www.w3.org/2000/svg">
        <style>
            #posts,
            #ooze1,
            #ooze2 {

                animation: moveScroll 15s linear infinite;
                /* Adjust the duration and timing function as needed */
            }

            @keyframes moveScroll {
                0% {
                    transform: translateY(0);
                }

                50% {
                    transform: translateY(35%);
                    /* Adjust the final position as needed */
                }

                100% {
                    transform: translateY(0);
                }
            }
        </style>
        <g id="infinite-scroll" clip-path="url(#clip0_97_46)">
            <path id="bg"
                d="M228.385 0.194458H39.4798C17.7831 0.194458 0.194336 17.7832 0.194336 39.48V521.772C0.194336 543.469 17.7831 561.057 39.4798 561.057H228.385C250.082 561.057 267.67 543.469 267.67 521.772V39.48C267.67 17.7832 250.082 0.194458 228.385 0.194458Z"
                fill="#FF6B00" />
            <g id="ooze1">
                <path
                    d="M277.04 390.067V393.126C277.04 394.595 277.358 394.186 277.04 394.551V400.459C277.04 404.85 273.849 407.788 272.262 411.682C271.531 413.477 265.439 419.904 263.54 419.904C249.952 419.904 235.334 417.204 228.484 430.904C227.115 433.642 225.116 434.727 225.04 438.126C224.935 442.835 224.336 445.264 222.596 449.57C220.531 454.677 218.677 459.763 215.54 464.348C213.541 467.271 210.314 470.801 208.984 473.904C206.928 478.702 198.518 480.282 194.262 479.682C183.838 478.211 176.514 465.283 172.984 456.459C169.554 447.884 157.951 437.035 152.484 449.459C148.805 457.823 145.046 472.904 133.54 472.904C121.347 472.904 113.001 466.382 103.929 458.57C99.1481 454.454 94.5293 450.231 89.9289 445.959C85.748 442.077 80.321 439.476 76.6512 434.959C68.8059 425.304 49.1663 422.041 41.54 433.904C38.8096 438.151 30.5658 441.904 25.5956 441.904H20.04C17.5028 441.904 16.5536 443.727 14.2623 443.904C12.7339 444.021 11.0423 443.625 9.54004 443.959C8.43632 444.205 5.77775 448.033 4.5956 446.682C3.34001 445.247 3.69462 440.92 3.42893 439.237C2.58005 433.861 1.26403 428.681 0.817818 423.237C-0.266699 410.006 0.0400402 396.723 0.0400402 383.459V232.348C0.0400402 214.806 10.7132 205.702 26.2623 198.348C48.4681 187.845 72.9104 185.045 97.04 182.459C124.499 179.517 151.916 180.093 179.484 179.126C207.889 178.129 239.668 175.533 267.04 184.515C292.941 193.013 312.688 221.96 314.818 248.459C315.84 261.179 314.467 272.493 310.984 284.682C307.17 298.033 306.014 310.192 304.484 323.737C303.643 331.186 301.04 337.76 301.04 345.348V345.394C301.04 349.913 301.04 355.57 299.596 359.904C296.213 370.05 290.254 378.566 282.484 385.904C281.11 387.202 281.04 387.892 281.04 389.793C281.04 390.849 280.592 389.341 280.04 389.126C279.078 388.752 277.729 390.67 277.151 390.237C277.102 390.2 277.066 390.141 277.04 390.067Z"
                    fill="#FF8A00" />
                <path
                    d="M277.04 388.904C277.04 392.756 277.04 396.607 277.04 400.459C277.04 404.85 273.849 407.788 272.262 411.682C271.531 413.477 265.439 419.904 263.54 419.904C249.952 419.904 235.334 417.204 228.484 430.904C227.115 433.642 225.116 434.727 225.04 438.126C224.935 442.835 224.336 445.264 222.596 449.57C220.531 454.677 218.677 459.763 215.54 464.348C213.541 467.271 210.314 470.801 208.984 473.904C206.928 478.702 198.518 480.282 194.262 479.682C183.838 478.211 176.514 465.282 172.984 456.459C169.554 447.884 157.951 437.035 152.484 449.459C148.805 457.823 145.046 472.904 133.54 472.904C121.347 472.904 113.001 466.382 103.929 458.57C99.1481 454.454 94.5293 450.231 89.9289 445.959C85.748 442.077 80.321 439.476 76.6512 434.959C68.8059 425.304 49.1663 422.041 41.54 433.904C38.8096 438.151 30.5658 441.904 25.5956 441.904C23.7437 441.904 21.8919 441.904 20.04 441.904C17.5028 441.904 16.5536 443.727 14.2623 443.904C12.7339 444.021 11.0423 443.625 9.54004 443.959C8.43632 444.205 5.77775 448.033 4.5956 446.682C3.34001 445.247 3.69462 440.92 3.42893 439.237C2.58005 433.861 1.26403 428.681 0.817818 423.237C-0.266699 410.006 0.0400402 396.723 0.0400402 383.459C0.0400402 333.089 0.0400402 282.719 0.0400402 232.348C0.0400402 214.806 10.7132 205.702 26.2623 198.348C48.4681 187.845 72.9104 185.045 97.04 182.459C124.499 179.517 151.916 180.093 179.484 179.126C207.889 178.129 239.668 175.533 267.04 184.515C292.941 193.013 312.688 221.96 314.818 248.459C315.84 261.179 314.467 272.493 310.984 284.682C307.17 298.033 306.014 310.192 304.484 323.737C303.643 331.186 301.04 337.76 301.04 345.348C301.04 349.874 301.045 355.555 299.596 359.904C296.213 370.05 290.254 378.566 282.484 385.904C281.11 387.202 281.04 387.892 281.04 389.793C281.04 390.849 280.592 389.341 280.04 389.126C279.078 388.752 277.729 390.67 277.151 390.237C276.851 390.012 277.04 388.958 277.04 388.626C277.04 387.126 277.04 391.626 277.04 393.126C277.04 395.3 277.735 393.361 276.04 395.904"
                    stroke="#FF8A00" stroke-width="3" stroke-linecap="round" />
            </g>
            <g id="ooze2">
                <path
                    d="M262.04 181.067V184.126C262.04 185.595 262.358 185.186 262.04 185.551V191.459C262.04 195.85 258.849 198.788 257.262 202.682C256.531 204.477 250.439 210.904 248.54 210.904C234.952 210.904 220.334 208.204 213.484 221.904C212.115 224.642 210.116 225.727 210.04 229.126C209.935 233.835 209.336 236.264 207.596 240.57C205.531 245.677 203.677 250.763 200.54 255.348C198.541 258.271 195.314 261.801 193.984 264.904C191.928 269.702 183.518 271.282 179.262 270.682C168.838 269.211 161.514 256.283 157.984 247.459C154.554 238.884 142.951 228.035 137.484 240.459C133.805 248.823 130.046 263.904 118.54 263.904C106.347 263.904 98.0006 257.382 88.9289 249.57C84.1481 245.454 79.5293 241.231 74.9289 236.959C70.748 233.077 65.321 230.476 61.6512 225.959C53.8059 216.304 34.1663 213.041 26.54 224.904C23.8096 229.151 15.5658 232.904 10.5956 232.904H5.04004C2.50279 232.904 1.55358 234.727 -0.737738 234.904C-2.26609 235.021 -3.95773 234.625 -5.45996 234.959C-6.56368 235.205 -9.22225 239.033 -10.4044 237.682C-11.66 236.247 -11.3054 231.92 -11.5711 230.237C-12.4199 224.861 -13.736 219.681 -14.1822 214.237C-15.2667 201.006 -14.96 187.723 -14.96 174.459V23.3482C-14.96 5.80603 -4.28684 -3.29752 11.2623 -10.6518C33.4681 -21.1546 57.9104 -23.9554 82.04 -26.5407C109.499 -29.4827 136.916 -28.9067 164.484 -29.874C192.889 -30.8707 224.668 -33.4667 252.04 -24.4852C277.941 -15.9865 297.688 12.96 299.818 39.4593C300.84 52.1794 299.467 63.4931 295.984 75.6815C292.17 89.0331 291.014 101.192 289.484 114.737C288.643 122.186 286.04 128.76 286.04 136.348V136.394C286.04 140.913 286.04 146.57 284.596 150.904C281.213 161.05 275.254 169.566 267.484 176.904C266.11 178.202 266.04 178.892 266.04 180.793C266.04 181.849 265.592 180.341 265.04 180.126C264.078 179.752 262.729 181.67 262.151 181.237C262.102 181.2 262.066 181.141 262.04 181.067Z"
                    fill="#ED3415" />
                <path
                    d="M262.04 179.904C262.04 183.756 262.04 187.607 262.04 191.459C262.04 195.85 258.849 198.788 257.262 202.682C256.531 204.477 250.439 210.904 248.54 210.904C234.952 210.904 220.334 208.204 213.484 221.904C212.115 224.642 210.116 225.727 210.04 229.126C209.935 233.835 209.336 236.264 207.596 240.57C205.531 245.677 203.677 250.763 200.54 255.348C198.541 258.271 195.314 261.801 193.984 264.904C191.928 269.702 183.518 271.282 179.262 270.682C168.838 269.211 161.514 256.282 157.984 247.459C154.554 238.884 142.951 228.035 137.484 240.459C133.805 248.823 130.046 263.904 118.54 263.904C106.347 263.904 98.0007 257.382 88.9289 249.57C84.1481 245.454 79.5293 241.231 74.9289 236.959C70.748 233.077 65.321 230.476 61.6512 225.959C53.8059 216.304 34.1663 213.041 26.54 224.904C23.8096 229.151 15.5658 232.904 10.5956 232.904C8.74374 232.904 6.89189 232.904 5.04004 232.904C2.50279 232.904 1.55358 234.727 -0.737738 234.904C-2.26609 235.021 -3.95773 234.625 -5.45996 234.959C-6.56368 235.205 -9.22225 239.033 -10.4044 237.682C-11.66 236.247 -11.3054 231.92 -11.5711 230.237C-12.4199 224.861 -13.736 219.681 -14.1822 214.237C-15.2667 201.006 -14.96 187.723 -14.96 174.459C-14.96 124.089 -14.96 73.7185 -14.96 23.3482C-14.96 5.80603 -4.28684 -3.29752 11.2623 -10.6518C33.4681 -21.1546 57.9104 -23.9554 82.04 -26.5407C109.499 -29.4827 136.916 -28.9067 164.484 -29.874C192.889 -30.8707 224.668 -33.4667 252.04 -24.4852C277.941 -15.9865 297.688 12.96 299.818 39.4593C300.84 52.1794 299.467 63.4931 295.984 75.6815C292.17 89.0331 291.014 101.192 289.484 114.737C288.643 122.186 286.04 128.76 286.04 136.348C286.04 140.874 286.045 146.555 284.596 150.904C281.213 161.05 275.254 169.566 267.484 176.904C266.11 178.202 266.04 178.892 266.04 180.793C266.04 181.849 265.592 180.341 265.04 180.126C264.078 179.752 262.729 181.67 262.151 181.237C261.851 181.012 262.04 179.958 262.04 179.626C262.04 178.126 262.04 182.626 262.04 184.126C262.04 186.3 262.735 184.361 261.04 186.904"
                    stroke="#ED3415" stroke-width="3" stroke-linecap="round" />
            </g>
            <g id="posts">
                <rect id="Rectangle 13" x="34" y="35" width="201" height="149" rx="30" fill="#434343" />
                <rect id="Rectangle 14" x="34" y="35" width="201" height="149" rx="30" fill="#434343" />
                <rect id="Rectangle 15" x="34" y="35" width="201" height="149" rx="30" fill="#434343" />
                <rect id="Rectangle 16" x="34" y="233" width="201" height="149" rx="30" fill="#434343" />
                <rect id="Rectangle 15" x="34" y="35" width="201" height="149" rx="30" fill="#434343" />
                <rect id="Rectangle 16" x="34" y="233" width="201" height="149" rx="30" fill="#434343" />
                <rect id="Rectangle 17" x="34" y="431" width="201" height="149" rx="30" fill="#434343" />
                <rect id="Rectangle 18" x="34" y="-142" width="201" height="149" rx="30" fill="#434343" />
            </g>
        </g>
        <defs>
            <clipPath id="clip0_97_46">
                <rect width="268" height="562" fill="white" />
            </clipPath>
        </defs>
    </svg>
