<svg width="268" height="562" viewBox="0 0 268 562" fill="none" xmlns="http://www.w3.org/2000/svg">
    <g id="misleading-choice" clip-path="url(#clip0_110_171)">

        <style>
            #yes {
                animation: enlargeAndShake 3.5s ease-in-out infinite;
                transform-origin: center;
            }

            @keyframes enlargeAndShake {

                0%,
                100% {
                    transform: scale(1);
                    transform: rotate(-2deg);
                }

                50% {
                    transform: scale(1.1);
                }

                25%,
                75% {
                    transform: rotate(2deg);
                    transform: scale(1);
                }
            }
        </style>

        <path id="bg"
            d="M228.385 0.194336H39.4798C17.7831 0.194336 0.194336 17.7831 0.194336 39.4798V521.772C0.194336 543.469 17.7831 561.057 39.4798 561.057H228.385C250.082 561.057 267.67 543.469 267.67 521.772V39.4798C267.67 17.7831 250.082 0.194336 228.385 0.194336Z"
            fill="#B9B9B9" />
        <g id="checks">
            <circle id="Ellipse 3" cx="57.5" cy="97.5" r="27.5" fill="#D9D9D9" />
            <circle id="Ellipse 4" cx="57.5" cy="195.5" r="27.5" fill="#D9D9D9" />
            <circle id="Ellipse 5" cx="57.5" cy="293.5" r="27.5" fill="#D9D9D9" />
            <path id="Vector 6" d="M43 96L55 111L85 47" stroke="#ED3415" stroke-width="4" />
            <path id="Vector 7" d="M43 191L55 206L85 142" stroke="#C3674F" stroke-width="4" />
            <path id="Vector 8" d="M43 289L55 304L85 240" stroke="#FF8A00" stroke-width="4" />
        </g>
        <g id="yes">
            <g id="Rectangle 19" filter="url(#filter0_d_110_171)">
                <rect x="22" y="385" width="112" height="70" rx="15" fill="#F79B34" />
            </g>
            <path id="YES"
                d="M61.292 417.78L64.748 411H67.052L61.832 421.248V429H59.312V421.26L54.08 411L56.528 410.76L59.984 417.552L60.932 420.54L61.292 417.78ZM82.2294 427.08L81.9894 429H70.9494L71.1294 426.6V413.52L70.7694 411H81.8094V412.92H73.1094L73.3494 415.2V418.38H80.9694V420.12H73.3494V424.92L73.2294 427.08H82.2294ZM86.5348 427.872L87.6268 426.072C87.7868 426.176 87.9948 426.296 88.2508 426.432C88.5148 426.56 88.8068 426.684 89.1268 426.804C89.4468 426.924 89.7868 427.024 90.1468 427.104C90.5068 427.184 90.8708 427.224 91.2388 427.224C91.7348 427.224 92.2308 427.164 92.7268 427.044C93.2308 426.916 93.6828 426.724 94.0828 426.468C94.4908 426.204 94.8188 425.872 95.0668 425.472C95.3228 425.072 95.4508 424.596 95.4508 424.044C95.4508 423.524 95.3308 423.068 95.0908 422.676C94.8508 422.284 94.5348 421.932 94.1428 421.62C93.7508 421.308 93.3028 421.024 92.7988 420.768C92.2948 420.512 91.7788 420.256 91.2508 420C90.7308 419.744 90.2188 419.48 89.7148 419.208C89.2108 418.928 88.7628 418.612 88.3708 418.26C87.9788 417.908 87.6628 417.508 87.4228 417.06C87.1828 416.612 87.0628 416.088 87.0628 415.488C87.0628 414.712 87.2268 414.032 87.5548 413.448C87.8828 412.864 88.3108 412.376 88.8388 411.984C89.3668 411.592 89.9668 411.296 90.6388 411.096C91.3108 410.896 91.9908 410.796 92.6788 410.796C94.3828 410.796 95.9548 411.276 97.3948 412.236L96.2308 413.712C95.6868 413.392 95.1628 413.156 94.6588 413.004C94.1628 412.852 93.6068 412.776 92.9908 412.776C92.5588 412.776 92.1228 412.82 91.6828 412.908C91.2508 412.996 90.8588 413.14 90.5068 413.34C90.1628 413.532 89.8788 413.788 89.6548 414.108C89.4388 414.42 89.3308 414.804 89.3308 415.26C89.3308 415.708 89.4508 416.096 89.6908 416.424C89.9388 416.752 90.2588 417.048 90.6508 417.312C91.0508 417.568 91.5028 417.812 92.0068 418.044C92.5108 418.268 93.0268 418.504 93.5548 418.752C94.0908 418.992 94.6108 419.26 95.1148 419.556C95.6188 419.844 96.0668 420.188 96.4588 420.588C96.8588 420.98 97.1788 421.444 97.4188 421.98C97.6668 422.508 97.7908 423.132 97.7908 423.852C97.7908 424.748 97.6068 425.532 97.2388 426.204C96.8788 426.868 96.3988 427.424 95.7988 427.872C95.2068 428.312 94.5268 428.644 93.7588 428.868C92.9908 429.092 92.2068 429.204 91.4068 429.204C90.8948 429.204 90.4188 429.172 89.9788 429.108C89.5388 429.052 89.1188 428.968 88.7188 428.856C88.3268 428.744 87.9508 428.608 87.5908 428.448C87.2308 428.28 86.8788 428.088 86.5348 427.872Z"
                fill="white" />
        </g>
        <g id="no">
            <g id="Rectangle 20" filter="url(#filter1_d_110_171)">
                <rect x="176.5" y="399.5" width="74" height="47" rx="14.5" stroke="#F79B34" stroke-opacity="0.66"
                    shape-rendering="crispEdges" />
            </g>
            <path id="NO"
                d="M209.45 433L204.5 423.52L202.91 419.39L202.85 419.4L203.5 423.8V433H201.7V420.1L201.4 418L203.41 417.8L208.37 427.43L210.03 431.6L210.09 431.59L209.3 427.2V418L211.1 417.8V433H209.45ZM219.508 433.17C218.908 433.17 218.354 433.08 217.848 432.9C217.348 432.713 216.891 432.453 216.478 432.12C216.071 431.78 215.714 431.377 215.408 430.91C215.101 430.443 214.841 429.927 214.628 429.36C214.421 428.787 214.264 428.177 214.158 427.53C214.058 426.877 214.008 426.2 214.008 425.5C214.008 424.8 214.058 424.127 214.158 423.48C214.258 422.827 214.408 422.217 214.608 421.65C214.814 421.077 215.068 420.557 215.368 420.09C215.674 419.623 216.031 419.223 216.438 418.89C216.844 418.55 217.304 418.29 217.818 418.11C218.331 417.923 218.894 417.83 219.508 417.83C220.108 417.83 220.658 417.923 221.158 418.11C221.664 418.29 222.121 418.55 222.528 418.89C222.941 419.223 223.301 419.623 223.608 420.09C223.914 420.557 224.171 421.077 224.378 421.65C224.591 422.217 224.748 422.827 224.848 423.48C224.954 424.127 225.008 424.8 225.008 425.5C225.008 426.2 224.958 426.877 224.858 427.53C224.758 428.177 224.604 428.787 224.398 429.36C224.198 429.927 223.944 430.443 223.638 430.91C223.338 431.377 222.984 431.78 222.578 432.12C222.171 432.453 221.711 432.713 221.198 432.9C220.684 433.08 220.121 433.17 219.508 433.17ZM222.928 425.81C222.928 425.343 222.911 424.867 222.878 424.38C222.851 423.893 222.791 423.42 222.698 422.96C222.611 422.493 222.488 422.057 222.328 421.65C222.168 421.237 221.958 420.88 221.698 420.58C221.444 420.273 221.131 420.03 220.758 419.85C220.391 419.67 219.954 419.58 219.448 419.58C218.968 419.58 218.551 419.66 218.198 419.82C217.844 419.98 217.544 420.2 217.298 420.48C217.051 420.753 216.848 421.077 216.688 421.45C216.528 421.817 216.404 422.207 216.318 422.62C216.231 423.033 216.171 423.457 216.138 423.89C216.104 424.323 216.088 424.743 216.088 425.15C216.088 425.623 216.101 426.107 216.128 426.6C216.161 427.093 216.221 427.573 216.308 428.04C216.401 428.5 216.528 428.937 216.688 429.35C216.848 429.757 217.058 430.113 217.318 430.42C217.578 430.727 217.891 430.97 218.258 431.15C218.624 431.33 219.061 431.42 219.568 431.42C220.041 431.42 220.451 431.34 220.798 431.18C221.151 431.013 221.451 430.79 221.698 430.51C221.951 430.223 222.158 429.897 222.318 429.53C222.478 429.157 222.601 428.763 222.688 428.35C222.781 427.93 222.844 427.503 222.878 427.07C222.911 426.637 222.928 426.217 222.928 425.81Z"
                fill="#727272" />
        </g>
    </g>
    <defs>
        <filter id="filter0_d_110_171" x="18" y="385" width="120" height="78" filterUnits="userSpaceOnUse"
            color-interpolation-filters="sRGB">
            <feFlood flood-opacity="0" result="BackgroundImageFix" />
            <feColorMatrix in="SourceAlpha" type="matrix" values="0 0 0 0 0 0 0 0 0 0 0 0 0 0 0 0 0 0 127 0"
                result="hardAlpha" />
            <feOffset dy="4" />
            <feGaussianBlur stdDeviation="2" />
            <feComposite in2="hardAlpha" operator="out" />
            <feColorMatrix type="matrix" values="0 0 0 0 0 0 0 0 0 0 0 0 0 0 0 0 0 0 0.25 0" />
            <feBlend mode="normal" in2="BackgroundImageFix" result="effect1_dropShadow_110_171" />
            <feBlend mode="normal" in="SourceGraphic" in2="effect1_dropShadow_110_171" result="shape" />
        </filter>
        <filter id="filter1_d_110_171" x="172" y="399" width="83" height="56" filterUnits="userSpaceOnUse"
            color-interpolation-filters="sRGB">
            <feFlood flood-opacity="0" result="BackgroundImageFix" />
            <feColorMatrix in="SourceAlpha" type="matrix" values="0 0 0 0 0 0 0 0 0 0 0 0 0 0 0 0 0 0 127 0"
                result="hardAlpha" />
            <feOffset dy="4" />
            <feGaussianBlur stdDeviation="2" />
            <feComposite in2="hardAlpha" operator="out" />
            <feColorMatrix type="matrix" values="0 0 0 0 0 0 0 0 0 0 0 0 0 0 0 0 0 0 0.25 0" />
            <feBlend mode="normal" in2="BackgroundImageFix" result="effect1_dropShadow_110_171" />
            <feBlend mode="normal" in="SourceGraphic" in2="effect1_dropShadow_110_171" result="shape" />
        </filter>
        <clipPath id="clip0_110_171">
            <rect width="268" height="562" fill="white" />
        </clipPath>
    </defs>
</svg>