<svg width="268" height="562" viewBox="0 0 268 562" fill="none" xmlns="http://www.w3.org/2000/svg">
<g id="time-fog" clip-path="url(#clip0_96_35)">
<path id="bg" d="M228.385 0.194458H39.4798C17.7831 0.194458 0.194336 17.7832 0.194336 39.48V521.772C0.194336 543.469 17.7831 561.057 39.4798 561.057H228.385C250.082 561.057 267.67 543.469 267.67 521.772V39.48C267.67 17.7832 250.082 0.194458 228.385 0.194458Z" fill="#EE3300"/>
<path id="bg-cloud" d="M-160.44 75.0152C-160.44 75.0152 -188.626 84.0275 -223.86 115.571C-259.093 147.115 -367.142 241.745 -291.977 228.226C-216.813 214.708 -160.44 228.226 -160.44 228.226L-94.6708 241.745H262.36C290.547 241.745 205.987 214.708 180.149 201.189C154.311 187.67 93.2403 201.189 93.2403 201.189C93.2403 201.189 93.2403 162.886 55.6581 162.886H-10.1108L-47.693 115.571C-47.693 115.571 -66.4841 99.7993 -94.6708 75.0152C-122.857 50.231 -160.44 75.0152 -160.44 75.0152Z" fill="#EC5329"/>
<g id="clock">
<path id="Ellipse 1" d="M241.014 265.602C241.014 325.942 192.927 374.759 133.729 374.759C74.5316 374.759 26.4444 325.942 26.4444 265.602C26.4444 205.261 74.5316 156.444 133.729 156.444C192.927 156.444 241.014 205.261 241.014 265.602Z" stroke="black" stroke-width="6.88889"/>
<path id="Vector" d="M134.565 159.153V187.457M134.565 343.746V372.05M209.02 190.097L189.725 210.8M83.1778 325.118L63.8824 345.82M62.6504 187.277L81.9626 207.964M188.603 322.195L207.915 342.882M26.6907 265.615H54.9881M211.239 265.615H239.537" stroke="black" stroke-width="4.13333"/>
<path id="?" d="M168.77 244.464C168.77 247.604 168.346 250.42 167.499 252.912C166.651 255.405 165.53 257.673 164.134 259.717C162.788 261.76 161.218 263.654 159.423 265.399C157.679 267.144 155.859 268.863 153.965 270.558C152.121 272.203 150.302 273.898 148.507 275.642C146.762 277.387 145.192 279.281 143.797 281.325C142.451 283.319 141.354 285.562 140.507 288.054C139.659 290.497 139.236 293.263 139.236 296.354L123.534 297.924C123.534 293.487 123.958 289.575 124.805 286.185C125.652 282.795 126.749 279.805 128.095 277.213C129.491 274.571 131.061 272.253 132.805 270.259C134.6 268.215 136.419 266.371 138.264 264.726C140.158 263.031 141.977 261.436 143.722 259.941C145.516 258.445 147.086 256.9 148.432 255.305C149.828 253.71 150.95 251.99 151.797 250.146C152.644 248.302 153.068 246.208 153.068 243.865C153.068 241.273 152.57 239.03 151.573 237.136C150.576 235.242 149.205 233.697 147.46 232.5C145.766 231.304 143.747 230.432 141.404 229.883C139.111 229.285 136.644 228.986 134.002 228.986C132.108 228.986 130.139 229.26 128.095 229.809C126.101 230.357 124.132 231.155 122.188 232.201C120.294 233.248 118.45 234.519 116.655 236.015C114.911 237.51 113.34 239.18 111.945 241.024L102 232.799C104.443 229.51 107.085 226.818 109.926 224.724C112.817 222.581 115.733 220.911 118.674 219.715C121.665 218.518 124.606 217.696 127.497 217.247C130.438 216.799 133.229 216.574 135.871 216.574C140.108 216.574 144.195 217.148 148.133 218.294C152.071 219.391 155.56 221.086 158.601 223.378C161.691 225.622 164.159 228.513 166.003 232.052C167.847 235.541 168.77 239.678 168.77 244.464ZM122.263 322.074C122.263 320.828 122.487 319.657 122.936 318.56C123.434 317.464 124.082 316.517 124.88 315.719C125.727 314.872 126.699 314.224 127.796 313.775C128.893 313.277 130.064 313.027 131.31 313.027C132.556 313.027 133.728 313.277 134.824 313.775C135.921 314.224 136.868 314.872 137.665 315.719C138.513 316.517 139.161 317.464 139.609 318.56C140.108 319.657 140.357 320.828 140.357 322.074C140.357 323.321 140.108 324.517 139.609 325.663C139.161 326.76 138.538 327.732 137.74 328.579C136.943 329.377 135.996 330.025 134.899 330.523C133.802 331.022 132.631 331.271 131.385 331.271C130.089 331.271 128.893 331.022 127.796 330.523C126.699 330.025 125.727 329.377 124.88 328.579C124.082 327.732 123.434 326.76 122.936 325.663C122.487 324.517 122.263 323.321 122.263 322.074Z" fill="black"/>
</g>
<path id="front-cloud" d="M30.4255 310.203C30.4255 310.203 17.1111 314.46 0.468269 329.36C-16.1746 344.26 -67.2128 388.96 -31.708 382.574C3.79684 376.189 30.4255 382.574 30.4255 382.574L61.4922 388.96H230.14C243.454 388.96 203.511 376.189 191.307 369.803C179.102 363.417 150.254 369.803 150.254 369.803C150.254 369.803 150.254 351.71 132.502 351.71H101.435L83.6827 329.36C83.6827 329.36 74.8065 321.91 61.4922 310.203C48.1779 298.496 30.4255 310.203 30.4255 310.203Z" fill="#F79B34"/>
<path id="bottom-cloud" d="M63.3563 521.505C43.8507 537.689 57.9481 549.551 57.9481 549.551L336.63 608.304L352.684 597.272C352.684 597.272 374.627 559.951 356.735 546.526C338.843 533.1 320.676 529.596 320.676 529.596C320.676 529.596 332.283 511.889 322.118 496.63C311.953 481.371 295.263 491.448 295.263 491.448C295.263 491.448 306.2 464.47 280.221 442.005C254.241 419.539 216.311 408.065 198.076 426.156C179.841 444.247 181.868 476.219 175.205 468.285C168.543 460.351 135.06 455.553 123.075 458.228C123.075 458.228 111.708 457.697 98.8299 473.497C85.9522 489.297 92.6492 505.548 92.6492 505.548C92.6492 505.548 82.8619 505.322 63.3563 521.505Z" fill="#F79B34"/>
<path id="bottom-cloud2" d="M-124.85 549.568C-140.938 569.154 -124.85 578.13 -124.85 578.13L159.913 583.027L173.588 569.154C173.588 569.154 188.067 528.351 167.957 518.558C147.847 508.765 129.345 508.765 129.345 508.765C129.345 508.765 137.389 489.18 124.519 476.123C111.648 463.066 97.1686 476.123 97.1686 476.123C97.1686 476.123 102.799 447.561 73.0361 430.424C43.2728 413.286 3.85655 409.206 -10.6229 430.424C-25.1023 451.641 -17.0582 482.651 -25.1023 476.123C-33.1465 469.595 -66.9319 471.226 -78.1937 476.123C-78.1937 476.123 -89.4554 477.755 -99.1084 495.708C-108.761 513.662 -99.1084 528.351 -99.1084 528.351C-99.1084 528.351 -108.761 529.983 -124.85 549.568Z" fill="#727272"/>
</g>
<defs>
<clipPath id="clip0_96_35">
<rect width="268" height="562" fill="white"/>
</clipPath>
</defs>
</svg>
